<svg version="1.1" viewBox="0.0 0.0 339.2834645669291 342.31496062992125" fill="none" stroke="none" stroke-linecap="square" stroke-miterlimit="10" xmlns:xlink="http://www.w3.org/1999/xlink" xmlns="http://www.w3.org/2000/svg"><clipPath id="p.0"><path d="m0 0l339.28348 0l0 342.31497l-339.28348 0l0 -342.31497z" clip-rule="nonzero"/></clipPath><g clip-path="url(#p.0)"><path fill="#000000" fill-opacity="0.0" d="m0 0l339.28348 0l0 342.31497l-339.28348 0z" fill-rule="evenodd"/><g filter="url(#shadowFilter-p.1)"><use xlink:href="#p.1" transform="matrix(1.0 0.0 0.0 1.0 0.0 2.0)"/></g><defs><filter id="shadowFilter-p.1" filterUnits="userSpaceOnUse"><feGaussianBlur in="SourceAlpha" stdDeviation="7.0" result="blur"/><feComponentTransfer in="blur" color-interpolation-filters="sRGB"><feFuncR type="linear" slope="0" intercept="0.0"/><feFuncG type="linear" slope="0" intercept="0.0"/><feFuncB type="linear" slope="0" intercept="0.0"/><feFuncA type="linear" slope="0.5" intercept="0"/></feComponentTransfer></filter></defs><g id="p.1"><path fill="#efefef" d="m16.0 167.1811l0 0c0 -83.49502 67.68609 -151.1811 151.1811 -151.1811l0 0c40.09572 0 78.549225 15.927963 106.90117 44.27992c28.35196 28.351955 44.279938 66.805466 44.279938 106.901184l0 0c0 83.49501 -67.6861 151.1811 -151.1811 151.1811l0 0c-83.49502 0 -151.1811 -67.6861 -151.1811 -151.1811z" fill-rule="evenodd"/></g><path fill="#ffff00" d="m138.12599 264.92258l0 0c0 -10.462967 13.008408 -18.944885 29.055115 -18.944885l0 0c16.046692 0 29.055115 8.481918 29.055115 18.944885l0 0c0 10.462952 -13.008423 18.944885 -29.055115 18.944885l0 0c-16.046707 0 -29.055115 -8.481934 -29.055115 -18.944885z" fill-rule="evenodd"/><path stroke="#b7b7b7" stroke-width="1.0" stroke-linejoin="round" stroke-linecap="butt" d="m138.12599 264.92258l0 0c0 -10.462967 13.008408 -18.944885 29.055115 -18.944885l0 0c16.046692 0 29.055115 8.481918 29.055115 18.944885l0 0c0 10.462952 -13.008423 18.944885 -29.055115 18.944885l0 0c-16.046707 0 -29.055115 -8.481934 -29.055115 -18.944885z" fill-rule="evenodd"/><path fill="#ffff00" d="m90.29152 235.45276l153.77885 0l0 0c20.145447 0 36.476562 6.7859497 36.476562 15.156845c0 8.370895 -16.331116 15.156845 -36.476562 15.156845l-153.77885 0l0 0c-20.145447 0 -36.47656 -6.7859497 -36.47656 -15.156845c0 -8.370895 16.331112 -15.156845 36.47656 -15.156845z" fill-rule="evenodd"/><path stroke="#b7b7b7" stroke-width="1.0" stroke-linejoin="round" stroke-linecap="butt" d="m90.29152 235.45276l153.77885 0l0 0c20.145447 0 36.476562 6.7859497 36.476562 15.156845c0 8.370895 -16.331116 15.156845 -36.476562 15.156845l-153.77885 0l0 0c-20.145447 0 -36.47656 -6.7859497 -36.47656 -15.156845c0 -8.370895 16.331112 -15.156845 36.47656 -15.156845z" fill-rule="evenodd"/><path fill="#ffff00" d="m140.3307 96.82546l0 -23.16536l0 0c0 -12.793869 12.021332 -23.165352 26.850403 -23.165352c14.829056 0 26.850388 10.371483 26.850388 23.165352l0 23.16536z" fill-rule="evenodd"/><path stroke="#b7b7b7" stroke-width="1.0" stroke-linejoin="round" stroke-linecap="butt" d="m140.3307 96.82546l0 -23.16536l0 0c0 -12.793869 12.021332 -23.165352 26.850403 -23.165352c14.829056 0 26.850388 10.371483 26.850388 23.165352l0 23.16536z" fill-rule="evenodd"/><path fill="#efefef" d="m149.1181 96.82546l0 -17.968506l0 0c0 -9.923729 8.087082 -17.968506 18.063004 -17.968506c9.975906 0 18.062988 8.044777 18.062988 17.968506l0 17.968506z" fill-rule="evenodd"/><path stroke="#b7b7b7" stroke-width="1.0" stroke-linejoin="round" stroke-linecap="butt" d="m149.1181 96.82546l0 -17.968506l0 0c0 -9.923729 8.087082 -17.968506 18.063004 -17.968506c9.975906 0 18.062988 8.044777 18.062988 17.968506l0 17.968506z" fill-rule="evenodd"/><path fill="#ffff00" d="m88.86614 245.97769l0 -82.944885l0 0c0 -45.80919 35.062805 -82.94488 78.314964 -82.94488c43.25215 0 78.31496 37.13569 78.31496 82.94488l0 82.944885z" fill-rule="evenodd"/><path stroke="#b7b7b7" stroke-width="1.0" stroke-linejoin="round" stroke-linecap="butt" d="m88.86614 245.97769l0 -82.944885l0 0c0 -45.80919 35.062805 -82.94488 78.314964 -82.94488c43.25215 0 78.31496 37.13569 78.31496 82.94488l0 82.944885z" fill-rule="evenodd"/></g></svg>